# xmcd
#
# Track frame offsets: 
#        150
#        22630
#        43060
#        60102
#        74515
#        92817
#        113120
#        133650
#        166725
#        191965
#        213225
#        228107
#        241762
#        254375
#        277762
#
# Disc length: 3980 seconds
#
# Revision: 5
# Processed by: cddbd v1.5.1PL2 Copyright (c) Steve Scherf et al.
# Submitted via: ExactAudioCopy v0.90b4
#
DISCID=bf0f8a0f
DTITLE=Odetta - Lookin' for a Home
DYEAR=2001
DGENRE=Folk
TTITLE0=Goodnight Irene
TTITLE1=You Don't Know My Mind
TTITLE2=Mother's Blues
TTITLE3=When I Was a Cowboy
TTITLE4=In the Pines
TTITLE5=How Long
TTITLE6=Bourgeois Blues
TTITLE7=Alabama Bound - Boll Weevil
TTITLE8=Roberta
TTITLE9=New Orleans
TTITLE10=Jim Crow Blues
TTITLE11=Rock Island Line
TTITLE12=Jullie Anne Johnson - Whoa Black Buck
TTITLE13=Easy Rider
TTITLE14=Midnight Special
EXTD=
EXTT0=
EXTT1=
EXTT2=
EXTT3=
EXTT4=
EXTT5=
EXTT6=
EXTT7=
EXTT8=
EXTT9=
EXTT10=
EXTT11=
EXTT12=
EXTT13=
EXTT14=
PLAYORDER=
